<svg width="897" height="115" viewBox="0 0 897 115" fill="none" xmlns="http://www.w3.org/2000/svg">
<path d="M0.727295 57.9092V47.6365C6.00002 47.6365 9.65154 46.591 11.6818 44.5001C13.7424 42.4092 14.7727 39.091 14.7727 34.5456V25.9547C14.7727 19.8637 15.6667 15.0759 17.4546 11.591C19.2728 8.10617 21.7424 5.54557 24.8637 3.9092C28.0152 2.27284 31.6515 1.24254 35.7728 0.818291C39.894 0.363747 44.2728 0.136475 48.9091 0.136475V16.4547C45.2728 16.4547 42.5455 16.8941 40.7273 17.7728C38.9394 18.6516 37.7424 19.985 37.1364 21.7728C36.5303 23.5607 36.2273 25.8183 36.2273 28.5456V40.1819C36.2273 42.485 35.7576 44.6971 34.8182 46.8183C33.8788 48.9395 32.1515 50.8334 29.6364 52.5001C27.1212 54.1668 23.5303 55.485 18.8637 56.4547C14.2273 57.4244 8.18184 57.9092 0.727295 57.9092ZM48.9091 114.727C44.2728 114.727 39.894 114.5 35.7728 114.046C31.6515 113.621 28.0152 112.591 24.8637 110.955C21.7424 109.318 19.2728 106.758 17.4546 103.273C15.6667 99.788 14.7727 95.0001 14.7727 88.9092V80.3638C14.7727 75.788 13.7424 72.4698 11.6818 70.4092C9.65154 68.3183 6.00002 67.2728 0.727295 67.2728V56.9547C8.18184 56.9547 14.2273 57.4547 18.8637 58.4547C23.5303 59.4244 27.1212 60.7425 29.6364 62.4092C32.1515 64.0456 33.8788 65.9244 34.8182 68.0456C35.7576 70.1668 36.2273 72.3789 36.2273 74.6819V86.3183C36.2273 89.0456 36.5303 91.3031 37.1364 93.091C37.7424 94.8789 38.9394 96.2122 40.7273 97.091C42.5455 97.9698 45.2728 98.4092 48.9091 98.4092V114.727ZM0.727295 67.2728V47.6365H18.8637V67.2728H0.727295Z" fill="#64A1EB"/>
<path d="M110.09 104H75.6805V10.9092H110.044C119.529 10.9092 127.696 12.7728 134.544 16.5001C141.423 20.1971 146.726 25.5304 150.453 32.5001C154.18 39.4395 156.044 47.7425 156.044 57.4092C156.044 67.1062 154.18 75.4395 150.453 82.4092C146.756 89.3789 141.468 94.7274 134.59 98.4547C127.711 102.152 119.544 104 110.09 104ZM98.1805 84.8183H109.226C114.438 84.8183 118.847 83.9395 122.453 82.1819C126.09 80.3941 128.832 77.5001 130.68 73.5001C132.559 69.4698 133.499 64.1062 133.499 57.4092C133.499 50.7122 132.559 45.3789 130.68 41.4092C128.802 37.4092 126.029 34.5304 122.362 32.7728C118.726 30.985 114.241 30.091 108.908 30.091H98.1805V84.8183Z" fill="#475461"/>
<path d="M164.06 104V10.9092H228.97V29.1819H186.56V48.2728H225.651V66.591H186.56V85.7274H228.97V104H164.06Z" fill="#475461"/>
<path d="M259.077 10.9092L279.895 79.091H280.668L301.486 10.9092H326.668L295.259 104H265.304L233.895 10.9092H259.077Z" fill="#475461"/>
<path d="M331.695 105.318C328.423 105.318 325.62 104.167 323.286 101.864C320.983 99.5607 319.847 96.7728 319.877 93.5001C319.847 90.288 320.983 87.5456 323.286 85.2728C325.62 82.9698 328.423 81.8183 331.695 81.8183C334.786 81.8183 337.514 82.9698 339.877 85.2728C342.271 87.5456 343.483 90.288 343.514 93.5001C343.483 95.6819 342.908 97.6668 341.786 99.4547C340.695 101.243 339.256 102.667 337.468 103.727C335.711 104.788 333.786 105.318 331.695 105.318Z" fill="#475461"/>
<path d="M440.939 57.4547C440.939 67.6971 438.969 76.3789 435.03 83.5001C431.091 90.6213 425.757 96.0304 419.03 99.7274C412.333 103.424 404.818 105.273 396.485 105.273C388.121 105.273 380.591 103.409 373.894 99.6819C367.197 95.9547 361.879 90.5456 357.939 83.4547C354.03 76.3334 352.075 67.6668 352.075 57.4547C352.075 47.2122 354.03 38.5304 357.939 31.4092C361.879 24.288 367.197 18.8789 373.894 15.1819C380.591 11.485 388.121 9.63647 396.485 9.63647C404.818 9.63647 412.333 11.485 419.03 15.1819C425.757 18.8789 431.091 24.288 435.03 31.4092C438.969 38.5304 440.939 47.2122 440.939 57.4547ZM417.939 57.4547C417.939 51.3941 417.075 46.2728 415.348 42.091C413.651 37.9092 411.197 34.7425 407.985 32.591C404.803 30.4395 400.969 29.3637 396.485 29.3637C392.03 29.3637 388.197 30.4395 384.985 32.591C381.772 34.7425 379.303 37.9092 377.575 42.091C375.878 46.2728 375.03 51.3941 375.03 57.4547C375.03 63.5153 375.878 68.6365 377.575 72.8183C379.303 77.0001 381.772 80.1668 384.985 82.3183C388.197 84.4698 392.03 85.5456 396.485 85.5456C400.969 85.5456 404.803 84.4698 407.985 82.3183C411.197 80.1668 413.651 77.0001 415.348 72.8183C417.075 68.6365 417.939 63.5153 417.939 57.4547Z" fill="#475461"/>
<path d="M448.955 104V10.9092H487.774C494.743 10.9092 500.577 11.8941 505.274 13.8637C510.001 15.8334 513.546 18.591 515.91 22.1365C518.304 25.6819 519.501 29.788 519.501 34.4547C519.501 38.0001 518.759 41.1668 517.274 43.9547C515.789 46.7122 513.743 49.0001 511.137 50.8183C508.531 52.6365 505.516 53.9092 502.092 54.6365V55.5456C505.849 55.7274 509.319 56.7425 512.501 58.591C515.713 60.4395 518.289 63.0153 520.228 66.3183C522.168 69.591 523.137 73.4698 523.137 77.9547C523.137 82.9547 521.865 87.4244 519.319 91.3638C516.774 95.2728 513.092 98.3637 508.274 100.636C503.455 102.879 497.607 104 490.728 104H448.955ZM471.455 85.8638H485.365C490.243 85.8638 493.834 84.9395 496.137 83.091C498.471 81.2425 499.637 78.6668 499.637 75.3638C499.637 72.9698 499.077 70.9092 497.955 69.1819C496.834 67.4244 495.243 66.0759 493.183 65.1365C491.122 64.1668 488.652 63.6819 485.774 63.6819H471.455V85.8638ZM471.455 49.1819H483.91C486.365 49.1819 488.546 48.7728 490.455 47.9547C492.365 47.1365 493.849 45.9547 494.91 44.4092C496.001 42.8637 496.546 41.0001 496.546 38.8183C496.546 35.6971 495.44 33.2425 493.228 31.4547C491.016 29.6668 488.031 28.7728 484.274 28.7728H471.455V49.1819Z" fill="#475461"/>
<path d="M551.335 10.9092V104H528.835V10.9092H551.335Z" fill="#475461"/>
<path d="M639.568 10.9092V104H620.477L583.431 50.2728H582.84V104H560.34V10.9092H579.704L616.34 64.5456H617.113V10.9092H639.568Z" fill="#475461"/>
<path d="M727.823 10.9092V104H708.732L671.686 50.2728H671.095V104H648.595V10.9092H667.959L704.595 64.5456H705.368V10.9092H727.823Z" fill="#475461"/>
<path d="M756.987 104H732.805L764.214 10.9092H794.169L825.578 104H801.396L779.532 34.3637H778.805L756.987 104ZM753.76 67.3638H804.305V84.4547H753.76V67.3638Z" fill="#475461"/>
<path d="M896.451 56.9547V67.2728C891.209 67.2728 887.557 68.3183 885.497 70.4092C883.436 72.4698 882.406 75.788 882.406 80.3638V88.9092C882.406 95.0001 881.497 99.788 879.679 103.273C877.891 106.758 875.421 109.318 872.27 110.955C869.148 112.591 865.527 113.621 861.406 114.046C857.315 114.5 852.936 114.727 848.27 114.727V98.4092C851.906 98.4092 854.618 97.9698 856.406 97.091C858.224 96.2122 859.436 94.8789 860.042 93.091C860.648 91.3031 860.951 89.0456 860.951 86.3183V74.6819C860.951 72.3789 861.421 70.1668 862.36 68.0456C863.3 65.9244 865.027 64.0456 867.542 62.4092C870.057 60.7425 873.633 59.4244 878.27 58.4547C882.936 57.4547 888.997 56.9547 896.451 56.9547ZM848.27 0.136475C852.936 0.136475 857.315 0.363747 861.406 0.818291C865.527 1.24254 869.148 2.27284 872.27 3.9092C875.421 5.54557 877.891 8.10617 879.679 11.591C881.497 15.0759 882.406 19.8637 882.406 25.9547V34.5456C882.406 39.091 883.436 42.4092 885.497 44.5001C887.557 46.591 891.209 47.6365 896.451 47.6365V57.9092C888.997 57.9092 882.936 57.4244 878.27 56.4547C873.633 55.485 870.057 54.1668 867.542 52.5001C865.027 50.8334 863.3 48.9395 862.36 46.8183C861.421 44.6971 860.951 42.485 860.951 40.1819V28.5456C860.951 25.8183 860.648 23.5607 860.042 21.7728C859.436 19.985 858.224 18.6516 856.406 17.7728C854.618 16.8941 851.906 16.4547 848.27 16.4547V0.136475ZM896.451 47.6365V67.2728H878.315V47.6365H896.451Z" fill="#64A1EB"/>
</svg>
